<?xml version="1.0" encoding="utf-8"?>
<!-- Generator: Adobe Illustrator 27.5.0, SVG Export Plug-In . SVG Version: 6.00 Build 0)  -->
<svg version="1.1" id="Calque_1" xmlns="http://www.w3.org/2000/svg" xmlns:xlink="http://www.w3.org/1999/xlink" x="0px" y="0px"
	 viewBox="0 0 125 125" style="enable-background:new 0 0 125 125;" xml:space="preserve">
<style type="text/css">
	.st0{fill:#FFFFFF;}
</style>
<g>
	<path class="st0" d="M62.5,2.5c-33.1,0-60,26.9-60,60c0,33.1,26.9,60,60,60c33.1,0,60-26.9,60-60C122.5,29.4,95.6,2.5,62.5,2.5z
		 M98.2,53.5c-7.7,0-15.1-2.4-21.3-6.8v31.2c0,15.6-12.7,28.2-28.3,28.2c-5.8,0.1-11.2-1.7-16-5c-0.5-0.4-0.9-0.6-1.2-0.9
		C22,93,18,80.7,21.6,69.4c3.7-11.8,14.6-19.8,27-19.7c1.3,0,2.5,0.1,3.8,0.3l0,15.7c-1.2-0.4-2.5-0.6-3.8-0.6
		c-4.8,0-9.1,2.7-11.3,6.9c-3.3,6.3-0.9,14.1,5.4,17.4c0.1,0.2,0.1,0.2,0,0c1.8,1,3.9,1.4,6,1.5c6.9,0,12.6-5.5,12.9-12.4V16.9h15.4
		c0,1.3,0.1,2.6,0.3,3.9c1.1,5.7,4.5,10.8,9.4,14c0.1,0.1,0.2,0.2,0.3,0.3c-0.1-0.1-0.2-0.2-0.3-0.3C90,37,94,38.3,98.1,38.3v3.3
		c0,0,0,0,0,0V53.5z"/>
</g>
</svg>
