<?xml version="1.0" encoding="utf-8"?>
<!-- Generator: Adobe Illustrator 27.5.0, SVG Export Plug-In . SVG Version: 6.00 Build 0)  -->
<svg version="1.1" id="Calque_1" xmlns="http://www.w3.org/2000/svg" xmlns:xlink="http://www.w3.org/1999/xlink" x="0px" y="0px"
	 viewBox="0 0 525 200" style="enable-background:new 0 0 525 200;" xml:space="preserve">
<style type="text/css">
	.st0{fill:#FFFFFF;}
</style>
<g>
	<g>
		<g>
			<path class="st0" d="M496.8,104.5c-1.4-2.2-3.3-3.9-5.6-5.4c-2-1.3-6-2.8-6-5.7c0-3.4,6.5-4.8,9-5.5c2-0.6,4.1-1.1,6.1-1.9
				c1.8-0.7,3.9-0.7,5.5-1.6c1.4-0.9,3.4-2.4,4.1-4c0.7-1.8,0.7-4.2,1.3-6.1c0.6-2,1.2-4,1.4-6.2c0.1-2.3-2-2-3.8-1.5
				c-2.2,0.6-3.9,1.4-6.2,1.5c-2.2,0.1-4.5,0.5-6.7,0.4c-3.8-0.3-6-5.5-8.2-8c-2.6-2.8-7.1-3.2-10.7-3.8c-1-0.2-2-0.3-2.9-0.6
				c0.1-2.7,1.1-5.3,1-8.1c-0.1-1.7-0.2-6.5-1.7-7.6c-1.5-1.1-4.1,2.4-4.9,3.5c-1.5,2.1-2,4.7-3.2,6.9c-2.2-1.2-3.4-2.5-6-2.6
				c-1.1,0-2.8-0.1-3.7,0.7c-1.2,1.2,0.3,1.7,0.5,2.8c0.2,1-0.6,2.7-0.7,3.7c-0.2,1.3-0.2,2.7-0.2,4c0.1,2,0.3,5.2,1.7,6.8
				c-2.8,0.4-4.4,4.9-5.7,7.1c-1.9,3.2-3.8,6.4-5.7,9.6c-1.9,3-4.4,5.7-5.7,9c-1.4,3.2-1.2,6.5-1.8,9.8c-0.6,3.5-2.5,6.7-4.3,9.7
				c-1.9,3.1-3.9,6.2-5.9,9.3c-4.1,6-8.9,11.5-12.3,17.9c-1.8,3.4-3.3,7.1-4.5,10.8c-1.3,4-1.7,8.1-2.7,12.1c-2.2-2.4-3.6-5.5-5-8.4
				c-1.4-2.9-2.9-5.8-3.5-9c-1.3-6.2-0.3-13.2,1.7-19.1c2-5.8,5.4-11.2,9.6-15.6c2-2.1,4.2-4.2,6.6-5.8c1.1-0.7,2.7-0.9,1.3-2
				c-1-0.9-3-1.5-4.2-1.7c-3.1-0.6-6.5-0.2-9.5,0.9c-3.3,1.3-5.7,4-8.9,5.4c-0.8-1.5-1.2-2.5-3.1-2.3c-2,0.2-3.7,1.5-4.8,3.1
				c-2.5,3.9-2.4,7.9-3,12.3c0,0.2-1.7-1.3-3.6-0.9c-1.5,0.3-2.1,2.6-2.4,3.9c-0.7,3.6,0.4,7.2,0.6,10.7c-1.2,0.3-1.7-2.8-3.5-1
				c-1.2,1.2-1.1,3.8-1.1,5.3c0.1,3.6,0.9,7.2,2.2,10.5c2.5,6.1,7.1,10.9,11.8,15.4c5,4.8,10.8,8.8,17,11.9c1.5,0.7,3.4,1.1,4.7,2.1
				c0.6,0.5,1.2,1.3,1.7,1.9c1.7,1.9,3.2,3.8,5.4,5.1c3.1,1.9,6.2,3.6,9.8,4.5c3.9,1,7.8,1.2,11.8,1.4c8.3,0.4,16.4-1.5,24.7-1.8
				c2-0.1,4.1-0.2,6.1,0.2c1.8,0.3,3.5,1.3,5.4,1.4c3.7,0.2,7-2,10.1-3.7c2.8-1.5,6.8-2.1,6.1-6.1c-0.7-3.8-3.6-5-6.1-7.6
				c-2.6-2.7-2.4-7-2.7-10.5c-0.4-4.2-0.4-8.3-0.3-12.5c0-7,0.3-13.9-0.2-20.8c-0.1-0.7-0.1-1.3-0.1-2c0.4,1.4,0.3,3.5,1.2,4.7
				c1.2,1.5,2.7,0.3,3.5-0.8c2-2.6,2.7-5.4,4.2-8.2c0.4,1.7,1.9,2.4,3,0.8c1.2-1.8,1.6-4.4,2-6.5c1.9,1.5,2.6-1.9,2.7-3.2
				c0.3-2-0.2-4.1-1-6C497.9,106.3,497.4,105.4,496.8,104.5z M461.1,176.8c0.6-0.6,1.1-1.2,1.6-1.8c0.5-0.7,1.1-1.4,1.5-2.1
				s0.8-1.4,1.3-2.1c0.5-0.7,1-1.5,1.7-2.1c0.3,3.1,0.9,6.2,1.1,9.4c-3,0.5-6,0.5-9,0.5C460,178,460.6,177.4,461.1,176.8z"/>
		</g>
		<g>
			<g>
				<path class="st0" d="M469.3,54.4c-1.6,4.2-2.6,0-2.6,0s0.7-7.6-4-14.2c-4.8-6.6-8.8-14-8.2-18.6c0.6-4.6,5.2-12.2,6.3-11.8
					c1,0.4-4.5,8.2-3.2,9c1.4,0.9,7.3-5.2,7.7-4c0.4,1.2-5.6,4-5.5,7.5c0.2,3.5,9.5-4.5,8.7-2.2c-0.7,2.3-6.8,4.7-7.6,7.2
					c-0.8,2.4,2.1,10.8,4.6,12.8c2.5,2,4.3-4.3,6.6-3.8c2.3,0.6-2.8,2.7-3.4,6.6C468.2,46.6,470.9,50.2,469.3,54.4z"/>
				<path class="st0" d="M451.1,32.9c1.2-1.3,0.7,3.1,0.1,6.4c-0.6,3.2,1.6,6.5,7.1,10.3c5.5,3.9,6,10.8,6,10.8l-2.9,0.6
					c0,0-1.1-4.4-5.7-8.3c-4.6-3.9-10.7-5.5-18.9-10.6c-8.2-5.1-17.8-15.6-18.7-20.5c-0.9-4.9,0-11.3,1-10.9
					c0.9,0.4,0.3,4.9,0.8,7.5s4.6,7.2,4.3,4.7c-0.3-2.5,1.6-8.1,2-8.6c0.4-0.5,0.2,1.8-0.1,4.1s0.5,6.5,2.6,7.9
					c2,1.4,2.8-6.1,4.2-6.4c1.4-0.3-1.3,5.1-1.8,8.6c-0.5,3.5,2,5.4,5.7,8.7c3.7,3.4,12.5,8.1,12.5,8.1s-0.4-1.7-0.4-4.5
					C448.9,38.1,450,34.2,451.1,32.9z"/>
			</g>
		</g>
	</g>
	<g>
		<g>
			<path class="st0" d="M13.8,140.4c-0.9,0-1.3-0.5-1.3-1.6l0.1-92.4c0.3-2.2,1.2-3.6,3.4-3.6h4.6c2.1,0,2.5,1.4,3.1,3.6l25.1,78
				l25.6-78c0.8-2.2,1.7-3.6,3.4-3.6h2c2.1,0,3.1,1.3,3.1,3.6v90.3c0,2.2-0.9,3.6-3,3.6h-4c-2.2,0-3.4-1.4-3.4-3.6V71.3l-22.4,65.5
				c-0.7,2.2-1.2,3.6-3.3,3.6h-3.4c-2.2,0-2.9-1.7-3.4-3.6L18,71.3v67.5c0,1-0.4,1.6-1.3,1.6H13.8z"/>
			<path class="st0" d="M111.5,136.7c0,2.2-0.9,3.6-3,3.6h-4c-2.2,0-3.4-1.4-3.4-3.6V46.4c0-2.2,1.2-3.6,3.4-3.6h4
				c2.1,0,3,1.4,3,3.6V136.7z"/>
			<path class="st0" d="M147.6,141.7c-13.9,0-19.8-12.6-19.8-28.1c0-3,0.7-4.4,2.9-4.4c2.2,0,2.3,1.4,2.3,4.6c0,13,6.2,22,13.1,22
				c7.8,0,12.4-8.7,12.4-17.7c0-26.6-27.2-28.9-27.2-51.8c0-14.1,9.8-24.7,20.8-24.7c11.3,0,14.8,7,14.8,21.3c0,2.2-0.3,3.6-2.5,3.6
				c-2.2,0-2.7-1.4-2.7-3.6c0-10.2-2.9-15.4-8.6-15.4c-5.6,0-10.3,6.8-10.3,13.7c0,21.2,27.2,26.4,27.2,51.7
				C170.1,130,160.3,141.7,147.6,141.7z"/>
			<path class="st0" d="M204.2,141.7c-13.9,0-19.8-12.6-19.8-28.1c0-3,0.7-4.4,2.9-4.4c2.2,0,2.3,1.4,2.3,4.6c0,13,6.2,22,13.1,22
				c7.8,0,12.4-8.7,12.4-17.7c0-26.6-27.2-28.9-27.2-51.8c0-14.1,9.8-24.7,20.8-24.7c11.3,0,14.8,7,14.8,21.3c0,2.2-0.3,3.6-2.5,3.6
				s-2.7-1.4-2.7-3.6c0-10.2-2.9-15.4-8.6-15.4c-5.6,0-10.3,6.8-10.3,13.7c0,21.2,27.2,26.4,27.2,51.7
				C226.7,130,217,141.7,204.2,141.7z"/>
			<path class="st0" d="M263.3,48v88.8c0,2.2-0.9,3.6-3,3.6h-4c-2.2,0-3.4-1.4-3.4-3.6V48h-14.1c-2.2,0-3.6-0.4-3.6-2.6
				c0-2.2,1.4-2.6,3.6-2.6h38.5c2.2,0,3.6,0.4,3.6,2.6c0,2.2-1.4,2.6-3.6,2.6H263.3z"/>
			<path class="st0" d="M303.8,136.7c0,2.2-0.9,3.6-3,3.6h-4c-2.2,0-3.4-1.4-3.4-3.6V46.4c0-2.2,1.2-3.6,3.4-3.6h4
				c2.1,0,3,1.4,3,3.6V136.7z"/>
			<path class="st0" d="M351.7,47.5c-8.3,0-18.4,17.6-18.4,48.2s9.5,38.9,16.9,38.9c7.2,0,10.7-6.5,12-12.6c0.5-2.2,0.5-3.6,2.7-3.6
				c2.2,0,2.5,1.4,2.5,3.6c0,6-6.4,19.8-20.6,19.8c-11.3,0-25.5-10.7-25.5-45.4c0-35.5,15.7-54.8,29.3-54.8c12.1,0,14.8,7,14.8,21.3
				c0,2.2-0.3,3.6-2.5,3.6c-2.2,0-2.7-1.4-2.7-3.6C360.3,52.7,357.4,47.5,351.7,47.5z"/>
		</g>
		<g>
			<path class="st0" d="M222.8,183.9c-0.2-0.2-0.3-0.5-0.3-0.8c0-0.6,0.3-1.2,0.8-1.9c0.5-0.6,1-1,1.5-1c0.2,0,0.4,0.1,0.6,0.2
				c2.8,2.5,6,3.7,9.7,3.7c2.4,0,4.4-0.5,5.9-1.6c1.5-1.1,2.3-2.7,2.3-4.7c0-1-0.1-1.8-0.3-2.5c-0.2-0.7-0.6-1.3-1.1-1.8
				c-0.5-0.5-1.1-1-1.8-1.3c-0.7-0.4-1.5-0.7-2.6-1.2l-7.1-2.7c-2.6-1-4.6-2.3-5.8-3.8c-1.3-1.5-1.9-3.7-1.9-6.4
				c0-2.2,0.6-4.1,1.7-5.7c1.1-1.7,2.6-2.9,4.5-3.7c1.9-0.8,4-1.3,6.4-1.3c2.3,0,4.5,0.4,6.6,1.3c2.1,0.9,3.7,1.9,4.8,3
				c0.4,0.4,0.6,0.8,0.6,1.4c0,0.6-0.2,1.1-0.6,1.6c-0.4,0.5-0.8,0.7-1.4,0.7c-0.4,0-0.7-0.1-1.1-0.4c-1-0.8-2.3-1.4-3.8-2.1
				c-1.5-0.6-3.1-0.9-4.9-0.9c-2.5,0-4.4,0.5-5.9,1.5c-1.5,1-2.2,2.5-2.2,4.5c0,1.5,0.4,2.6,1.1,3.5c0.8,0.9,2,1.6,3.7,2.3l7.1,2.6
				c1.4,0.5,2.6,1.1,3.6,1.7c1,0.6,1.9,1.3,2.7,2.1c0.8,0.8,1.4,1.8,1.8,3c0.4,1.2,0.6,2.5,0.6,4c0,3.7-1.2,6.5-3.6,8.6
				c-2.4,2-5.6,3.1-9.7,3.1C229.9,188.8,225.8,187.2,222.8,183.9z"/>
			<path class="st0" d="M258.1,186.5c-1.1-1.4-1.7-3.6-1.7-6.5v-16.2h-3c-0.5,0-1-0.1-1.2-0.5c-0.3-0.3-0.4-0.7-0.4-1.2
				c0-0.5,0.1-0.9,0.4-1.2c0.3-0.3,0.7-0.5,1.2-0.5h3l0.6-8c0-0.6,0.3-1.1,0.7-1.5c0.4-0.4,0.9-0.6,1.4-0.6c0.5,0,0.9,0.2,1.2,0.5
				c0.3,0.3,0.5,0.8,0.5,1.5v8.2h4.5c0.5,0,0.9,0.2,1.2,0.5c0.3,0.3,0.4,0.7,0.4,1.2c0,1.1-0.5,1.6-1.6,1.6h-4.5v15.3
				c0,1.9,0.2,3.3,0.7,4.2c0.5,0.9,1.2,1.3,2.3,1.3h0.3l1.7-0.1h0.1c0.5,0,1,0.2,1.3,0.6c0.3,0.4,0.5,0.9,0.5,1.4
				c0,0.5-0.1,0.8-0.3,1.1c-0.2,0.3-0.5,0.5-0.8,0.6c-0.4,0.1-0.7,0.2-1.1,0.3c-0.4,0-0.9,0.1-1.4,0.1h-1.5
				C260.7,188.6,259.2,187.9,258.1,186.5z"/>
			<path class="st0" d="M275.1,186c-1.6-1.8-2.4-4.5-2.4-8.2v-15.2c0-0.8,0.2-1.4,0.7-1.8c0.4-0.4,1-0.6,1.6-0.6
				c0.6,0,1.1,0.2,1.6,0.6c0.4,0.4,0.7,1,0.7,1.8v15.2c0,2.4,0.5,4.2,1.4,5.5c1,1.2,2.3,1.9,4.1,1.9c1.9,0,3.5-0.8,4.8-2.3
				c1.3-1.5,2-3.6,2.1-6.3v-14c0-0.8,0.2-1.3,0.7-1.8c0.4-0.4,1-0.6,1.6-0.6c0.6,0,1.1,0.2,1.6,0.6c0.4,0.4,0.6,1,0.6,1.8v23.2
				c0,0.8-0.2,1.3-0.7,1.8c-0.4,0.4-1,0.6-1.6,0.6c-0.6,0-1.1-0.2-1.6-0.6c-0.4-0.4-0.6-1-0.6-1.7v-2.5c-0.6,1.7-1.7,3-3.1,3.9
				c-1.4,0.9-3.1,1.4-5,1.4C278.8,188.7,276.7,187.8,275.1,186z"/>
			<path class="st0" d="M305.8,187.5c-1.4-0.8-2.5-1.9-3.3-3.2c-0.9-1.4-1.5-2.9-2-4.7c-0.5-1.7-0.7-3.6-0.7-5.6
				c0-2,0.2-3.9,0.7-5.6c0.5-1.7,1.2-3.3,2.1-4.6s2.1-2.3,3.5-3.1c1.4-0.7,3-1.1,4.7-1.1c1.8,0,3.4,0.5,4.8,1.4
				c1.4,0.9,2.5,2.2,3.2,3.9v-14.6c0-0.7,0.2-1.3,0.7-1.7c0.4-0.4,1-0.6,1.6-0.6c0.6,0,1.1,0.2,1.6,0.6c0.4,0.4,0.7,1,0.7,1.7v35.4
				c0,0.8-0.2,1.3-0.7,1.8c-0.4,0.4-1,0.6-1.6,0.6c-0.7,0-1.3-0.2-1.7-0.6c-0.4-0.4-0.6-1-0.6-1.7v-2.5c-0.8,1.8-1.9,3.2-3.4,4.1
				c-1.5,0.9-3.2,1.4-5.1,1.4C308.7,188.7,307.2,188.3,305.8,187.5z M318.9,174c0-1.4-0.1-2.8-0.4-4c-0.3-1.3-0.7-2.4-1.3-3.5
				c-0.6-1.1-1.3-1.9-2.3-2.5c-1-0.6-2.1-0.9-3.4-0.9c-1.3,0-2.4,0.3-3.4,1c-1,0.7-1.7,1.5-2.2,2.6c-0.5,1.1-0.9,2.3-1.2,3.5
				c-0.3,1.2-0.4,2.5-0.4,3.9c0,1.3,0.1,2.6,0.3,3.8c0.2,1.2,0.6,2.4,1.1,3.5c0.5,1.1,1.2,2,2.2,2.7c0.9,0.7,2.1,1,3.3,1.1
				C316.3,185.2,318.9,181.5,318.9,174z"/>
			<path class="st0" d="M331.3,152.8c-0.5-0.6-0.8-1.3-0.8-2.2c0-0.9,0.3-1.7,0.8-2.3c0.5-0.6,1.2-0.9,2.1-0.9
				c0.9,0,1.5,0.3,2.1,0.9c0.5,0.6,0.8,1.3,0.8,2.3c0,0.9-0.3,1.7-0.8,2.2c-0.5,0.6-1.2,0.9-2.1,0.9
				C332.5,153.7,331.8,153.4,331.3,152.8z M331.8,187.5c-0.4-0.4-0.6-1.1-0.6-1.9v-22.9c0-0.8,0.2-1.4,0.7-1.9
				c0.5-0.5,1-0.7,1.6-0.7c0.6,0,1.1,0.2,1.5,0.7c0.4,0.5,0.7,1.1,0.7,1.9v22.9c0,0.8-0.2,1.4-0.7,1.9c-0.5,0.5-1,0.7-1.6,0.7
				C332.7,188.2,332.2,187.9,331.8,187.5z"/>
			<path class="st0" d="M344.6,184.6c-2.2-2.7-3.3-6.2-3.3-10.4c0-4.2,1.1-7.7,3.3-10.4c2.2-2.7,5.2-4.1,9-4.1c3.8,0,6.8,1.4,9,4.1
				c2.2,2.7,3.3,6.2,3.3,10.5c0,4.2-1.1,7.7-3.3,10.4c-2.2,2.7-5.2,4.1-9,4.1C349.9,188.7,346.9,187.3,344.6,184.6z M359.5,182.2
				c1.4-2,2.1-4.6,2.1-8.1c0-3.4-0.7-6.1-2.1-8.1c-1.4-2-3.3-3-5.8-3c-2.5,0-4.4,1-5.8,3c-1.4,2-2.1,4.7-2.1,8.1
				c0,3.4,0.7,6.1,2.1,8c1.4,2,3.3,3,5.8,3C356.1,185.2,358.1,184.2,359.5,182.2z"/>
		</g>
	</g>
</g>
</svg>
