<?xml version="1.0" encoding="utf-8"?>
<!-- Generator: Adobe Illustrator 27.5.0, SVG Export Plug-In . SVG Version: 6.00 Build 0)  -->
<svg version="1.1" id="Calque_1" xmlns="http://www.w3.org/2000/svg" xmlns:xlink="http://www.w3.org/1999/xlink" x="0px" y="0px"
	 viewBox="0 0 125 125" style="enable-background:new 0 0 125 125;" xml:space="preserve">
<style type="text/css">
	.st0{fill:#FFFFFF;}
</style>
<g>
	<path class="st0" d="M49.2,57.5c-4.1,0-7.2,3.6-7.2,8s3.3,8,7.2,8c4,0,7.1-3.6,7.2-8S53.2,57.5,49.2,57.5z"/>
	<path class="st0" d="M75.8,57.5c-4.1,0-7.2,3.6-7.2,8s3.3,8,7.2,8c4,0,7.1-3.6,7.2-8C83.1,61.1,79.9,57.5,75.8,57.5z"/>
	<path class="st0" d="M62.5,2.5c-33.1,0-60,26.9-60,60s26.9,60,60,60s60-26.9,60-60S95.6,2.5,62.5,2.5z M102.2,82.7
		c-6.1,4.6-13,7.9-20.2,10.2c-1.7-2.2-3.1-4.6-4.3-7c2.4-0.9,4.6-2,6.8-3.3c-0.6-0.4-1.1-0.8-1.7-1.3c-12.8,6-27.7,6-40.5,0
		c-0.6,0.4-1.1,0.9-1.7,1.3c2.2,1.3,4.5,2.4,6.8,3.3c-1.3,2.5-2.7,4.8-4.3,7c-7.3-2.2-14.2-5.7-20.2-10.2
		c-1.4-14.9,1.4-29.9,11.8-45.4c5.3-2.4,10.8-4.1,16.5-5.1c0.8,1.4,1.5,2.8,2.1,4.3c6.1-0.9,12.2-0.9,18.3,0
		c0.6-1.4,1.4-2.9,2.1-4.3c5.7,1,11.3,2.6,16.5,5C99.3,50.5,103.9,65.5,102.2,82.7z"/>
</g>
</svg>
