<?xml version="1.0" encoding="utf-8"?>
<!-- Generator: Adobe Illustrator 27.5.0, SVG Export Plug-In . SVG Version: 6.00 Build 0)  -->
<svg version="1.1" id="Calque_1" xmlns="http://www.w3.org/2000/svg" xmlns:xlink="http://www.w3.org/1999/xlink" x="0px" y="0px"
	 viewBox="0 0 125 125" style="enable-background:new 0 0 125 125;" xml:space="preserve">
<style type="text/css">
	.st0{fill:#FFFFFF;}
</style>
<path class="st0" d="M62.5,2.5c-33.1,0-60,26.9-60,60s26.9,60,60,60s60-26.9,60-60S95.6,2.5,62.5,2.5z M49.4,62.9L25.6,83.1V42.3
	L49.4,62.9z M62.5,66.7L27.9,37c0.7-0.4,1.4-0.6,2.2-0.6h64.7c0.8,0,1.5,0.2,2.2,0.6L62.5,66.7z M53.1,66.4l8.7,7.6
	c0.4,0.3,0.9,0.3,1.2,0l8.7-7.6L97.1,88c-0.7,0.4-1.4,0.6-2.2,0.6H30.1c-0.8,0-1.5-0.2-2.2-0.6L53.1,66.4z M75.6,62.9l23.7-20.6
	v40.8L75.6,62.9z"/>
</svg>
