<?xml version="1.0" encoding="utf-8"?>
<!-- Generator: Adobe Illustrator 27.5.0, SVG Export Plug-In . SVG Version: 6.00 Build 0)  -->
<svg version="1.1" id="Calque_1" xmlns="http://www.w3.org/2000/svg" xmlns:xlink="http://www.w3.org/1999/xlink" x="0px" y="0px"
	 viewBox="0 0 125 125" style="enable-background:new 0 0 125 125;" xml:space="preserve">
<style type="text/css">
	.st0{fill:#FFFFFF;}
</style>
<path class="st0" d="M122.5,62.5c0,33.2-26.8,60-60,60s-60-26.8-60-60s26.9-60,60-60S122.5,29.4,122.5,62.5z M51.5,94.2
	c26.6,0,41.2-22.1,41.2-41.2c0-0.6,0-1.3,0-1.9c2.8-2,5.3-4.6,7.2-7.5c-2.6,1.1-5.4,1.9-8.3,2.3c3-1.8,5.3-4.6,6.4-8
	c-2.8,1.6-5.9,2.8-9.2,3.5c-2.6-2.8-6.4-4.6-10.6-4.6c-8,0-14.5,6.5-14.5,14.5c0,1.1,0.1,2.2,0.4,3.3c-12-0.6-22.7-6.4-29.8-15.1
	c-1.2,2.1-1.9,4.6-1.9,7.3c0,5,2.5,9.5,6.4,12c-2.4-0.1-4.6-0.7-6.5-1.8c0,0.1,0,0.1,0,0.2c0,7,5,12.8,11.6,14.2
	c-1.2,0.3-2.5,0.5-3.8,0.5c-0.9,0-1.8-0.1-2.7-0.3c1.8,5.8,7.2,9.9,13.5,10.1c-5,3.9-11.2,6.2-18,6.2c-1.2,0-2.3-0.1-3.5-0.2
	C35.7,91.8,43.4,94.2,51.5,94.2"/>
</svg>
